<?xml version="1.0" encoding="utf-8"?>
<!-- Generator: Adobe Illustrator 17.1.0, SVG Export Plug-In . SVG Version: 6.00 Build 0)  -->
<!DOCTYPE svg PUBLIC "-//W3C//DTD SVG 1.1//EN" "http://www.w3.org/Graphics/SVG/1.1/DTD/svg11.dtd">
<svg version="1.1" id="Laag_1" xmlns="http://www.w3.org/2000/svg" xmlns:xlink="http://www.w3.org/1999/xlink" x="0px" y="0px"
     viewBox="0 0 100 101.6" enable-background="new 0 0 100 101.6" xml:space="preserve">
<g>
    <g>
        <linearGradient id="SVGID_1_" gradientUnits="userSpaceOnUse" x1="33.4388" y1="4.1629" x2="76.9387" y2="101.1627">
            <stop  offset="0" style="stop-color:#5CA9C8"/>
            <stop  offset="1" style="stop-color:#0178A9"/>
        </linearGradient>
        <path fill="url(#SVGID_1_)" d="M19.6,62.2l-5.9-3.5c-1.4-0.8-3.8-0.8-5.2,0l-5.9,3.5C1.2,63,0,65.1,0,66.7v6.9
            c0,1.7,1.2,3.7,2.6,4.5l5.9,3.5c1.4,0.8,3.8,0.8,5.2,0l5.9-3.5c1.4-0.8,2.6-2.9,2.6-4.5v-6.9C22.2,65.1,21.1,63,19.6,62.2z
             M19.6,23.4L13.7,20c-1.4-0.8-3.8-0.8-5.2,0l-5.9,3.4C1.2,24.3,0,26.3,0,28v6.9c0,1.7,1.2,3.7,2.6,4.5l5.9,3.5
            c1.4,0.8,3.8,0.8,5.2,0l5.9-3.5c1.4-0.8,2.6-2.9,2.6-4.5V28C22.2,26.3,21.1,24.3,19.6,23.4z M69.3,23.4l5.9-3.4
            c1.4-0.8,3.8-0.8,5.2,0l5.9,3.4c1.4,0.8,3.8,0.8,5.2,0l5.9-3.4c1.4-0.8,2.6-2.9,2.6-4.5V8.6c0-1.7-1.2-3.7-2.6-4.5l-5.9-3.4
            c-1.4-0.8-3.8-0.8-5.2,0l-5.9,3.4c-1.4,0.8-3.8,0.8-5.2,0l-5.9-3.4c-1.4-0.8-3.8-0.8-5.2,0l-5.9,3.4c-1.4,0.8-3.8,0.8-5.2,0
            L47,0.6c-1.4-0.8-3.8-0.8-5.2,0l-5.9,3.4c-1.4,0.8-2.6,2.9-2.6,4.5v6.9c0,1.7,1.2,3.7,2.6,4.5l5.9,3.4c1.4,0.8,2.6,2.9,2.6,4.5
            v6.9c0,1.7-1.2,3.7-2.6,4.5l-5.9,3.5c-1.4,0.8-2.6,2.9-2.6,4.5v6.9c0,1.7,1.2,3.7,2.6,4.5l5.9,3.5c1.4,0.8,2.6,2.9,2.6,4.5v6.9
            c0,1.7-1.2,3.7-2.6,4.5l-5.9,3.5c-1.4,0.8-2.6,2.9-2.6,4.5V93c0,1.7,1.2,3.7,2.6,4.5l5.9,3.5c1.4,0.8,3.8,0.8,5.2,0l5.9-3.5
            c1.4-0.8,3.8-0.8,5.2,0l5.9,3.5c1.4,0.8,3.8,0.8,5.2,0l5.9-3.5c1.4-0.8,3.8-0.8,5.2,0l5.9,3.5c1.4,0.8,3.8,0.8,5.2,0l5.9-3.5
            c1.4-0.8,2.6-2.9,2.6-4.5v-6.9c0-1.7-1.2-3.7-2.6-4.5l-5.9-3.5c-1.4-0.8-3.8-0.8-5.2,0l-5.9,3.5c-1.4,0.8-3.8,0.8-5.2,0l-5.9-3.5
            c-1.4-0.8-2.6-2.9-2.6-4.5v-6.9c0-1.7,1.2-3.7,2.6-4.5l5.9-3.5c1.4-0.8,3.8-0.8,5.2,0l5.9,3.5c1.4,0.8,3.8,0.8,5.2,0l5.9-3.5
            c1.4-0.8,2.6-2.9,2.6-4.5v-6.9c0-1.7-1.2-3.7-2.6-4.5l-5.9-3.5c-1.4-0.8-3.8-0.8-5.2,0l-5.9,3.5c-1.4,0.8-3.8,0.8-5.2,0l-5.9-3.5
            c-1.4-0.8-2.6-2.9-2.6-4.5V28C66.7,26.3,67.8,24.3,69.3,23.4z"/>
    </g>
</g>
</svg>